<svg width="301" height="470" viewBox="0 0 301 470" fill="none" xmlns="http://www.w3.org/2000/svg">
<rect x="0.5" y="0.5" width="79" height="79" rx="9.5" stroke="#FFBBAA"></rect>
<path d="M94.02 22V7.8H99.04C102.12 7.8 104.12 9.72 104.12 12.62C104.12 15.52 102.12 17.44 99.04 17.44H96.76V22H94.02ZM96.76 14.92H98.8C100.28 14.92 101.34 14.28 101.34 12.62C101.34 10.98 100.28 10.32 98.8 10.32H96.76V14.92ZM108.863 22.2C106.803 22.2 105.283 21.2 104.963 19.28L107.103 18.7C107.303 19.38 107.803 20.08 108.823 20.08C109.503 20.08 110.163 19.74 110.163 19C110.163 18.5 109.843 18.14 109.023 17.84L107.743 17.36C106.023 16.74 105.303 15.64 105.303 14.38C105.303 12.52 106.943 11.4 108.903 11.4C110.783 11.4 112.163 12.46 112.503 14.06L110.403 14.6C110.123 13.76 109.583 13.5 109.023 13.5C108.323 13.5 107.903 13.9 107.903 14.4C107.903 14.84 108.163 15.22 108.983 15.5L110.143 15.94C111.423 16.4 112.823 17.16 112.823 19C112.823 21.08 111.043 22.2 108.863 22.2ZM114.352 22V11.6H117.032V22H114.352ZM114.352 10.16V7.8H117.032V10.16H114.352ZM124.059 22.2C121.319 22.2 118.579 20.32 118.579 16.8C118.579 13.28 121.319 11.4 124.059 11.4C125.899 11.4 127.539 12.26 128.539 13.96L126.579 15.22C126.039 14.4 125.159 13.82 124.079 13.82C122.579 13.82 121.219 14.94 121.219 16.8C121.219 18.66 122.579 19.78 124.079 19.78C125.159 19.78 126.039 19.2 126.579 18.38L128.539 19.64C127.539 21.32 125.899 22.2 124.059 22.2ZM134.82 22.2C132.1 22.2 129.34 20.32 129.34 16.8C129.34 13.28 132.1 11.4 134.82 11.4C137.52 11.4 140.3 13.28 140.3 16.8C140.3 20.32 137.52 22.2 134.82 22.2ZM131.98 16.8C131.98 18.66 133.32 19.78 134.82 19.78C136.32 19.78 137.64 18.66 137.64 16.8C137.64 14.94 136.32 13.82 134.82 13.82C133.32 13.82 131.98 14.94 131.98 16.8ZM133.86 10.34L135.86 7.2H138.02L135.96 10.34H133.86ZM141.833 22V7.8H144.513V22H141.833ZM151.539 22.2C148.819 22.2 146.059 20.32 146.059 16.8C146.059 13.28 148.819 11.4 151.539 11.4C154.239 11.4 157.019 13.28 157.019 16.8C157.019 20.32 154.239 22.2 151.539 22.2ZM148.699 16.8C148.699 18.66 150.039 19.78 151.539 19.78C153.039 19.78 154.359 18.66 154.359 16.8C154.359 14.94 153.039 13.82 151.539 13.82C150.039 13.82 148.699 14.94 148.699 16.8ZM163.631 26.16C162.431 26.16 161.231 25.92 160.611 25.52V23.34C161.091 23.66 162.131 23.92 163.151 23.92C165.151 23.92 166.431 22.98 166.431 21.4V20.6H166.311C166.051 21.18 164.891 22.2 163.051 22.2C160.651 22.2 158.051 20.4 158.051 16.8C158.051 13.2 160.651 11.4 163.051 11.4C164.891 11.4 166.051 12.42 166.311 13H166.431V11.6H169.111V21.22C169.111 25.2 165.991 26.16 163.631 26.16ZM160.691 16.8C160.691 18.74 162.091 19.8 163.591 19.8C165.111 19.8 166.491 18.76 166.491 16.8C166.491 14.84 165.111 13.8 163.591 13.8C162.091 13.8 160.691 14.86 160.691 16.8ZM175.649 22.2C173.229 22.2 170.649 20.4 170.649 16.8C170.649 13.2 173.229 11.4 175.649 11.4C177.509 11.4 178.709 12.42 178.969 13H179.029V11.6H181.709V22H179.029V20.6H178.969C178.709 21.18 177.509 22.2 175.649 22.2ZM173.289 16.8C173.289 18.74 174.689 19.8 176.189 19.8C177.689 19.8 179.089 18.76 179.089 16.8C179.089 14.84 177.689 13.8 176.189 13.8C174.689 13.8 173.289 14.86 173.289 16.8Z" fill="#2B695B"></path>
<path d="M98.698 42.14C95.898 42.14 93.574 40.124 93.574 37.03C93.574 33.936 95.912 31.92 98.698 31.92C100.056 31.92 101.68 32.396 102.73 34.076L101.33 35.042C100.686 34.118 99.72 33.74 98.754 33.74C96.99 33.74 95.534 35.014 95.534 37.03C95.534 39.06 97.004 40.32 98.768 40.32C99.762 40.32 100.686 39.942 101.33 39.018L102.73 39.984C101.68 41.664 100.056 42.14 98.698 42.14ZM109.305 42L107.261 38.71H105.777V42H103.859V32.06H107.345C109.459 32.06 110.859 33.404 110.859 35.434C110.859 36.862 110.173 37.898 109.025 38.388L111.349 42H109.305ZM105.777 37.044H107.149C108.199 37.044 108.913 36.596 108.913 35.434C108.913 34.286 108.199 33.824 107.149 33.824H105.777V37.044ZM112.485 42V32.06H115.999C118.155 32.06 119.555 33.404 119.555 35.434C119.555 37.464 118.155 38.808 115.999 38.808H114.403V42H112.485ZM114.403 37.044H115.831C116.867 37.044 117.609 36.596 117.609 35.434C117.609 34.286 116.867 33.824 115.831 33.824H114.403V37.044ZM128.515 42.14C125.771 42.14 123.447 40.082 123.447 37.03C123.447 33.978 125.771 31.92 128.515 31.92C131.245 31.92 133.583 33.978 133.583 37.03C133.583 40.082 131.245 42.14 128.515 42.14ZM125.365 37.03C125.365 39.032 126.779 40.39 128.515 40.39C130.237 40.39 131.665 39.032 131.665 37.03C131.665 35.028 130.237 33.67 128.515 33.67C126.779 33.67 125.365 35.028 125.365 37.03ZM139.658 42.14C136.914 42.14 134.59 40.082 134.59 37.03C134.59 33.978 136.914 31.92 139.658 31.92C142.388 31.92 144.726 33.978 144.726 37.03C144.726 40.082 142.388 42.14 139.658 42.14ZM136.508 37.03C136.508 39.032 137.922 40.39 139.658 40.39C141.38 40.39 142.808 39.032 142.808 37.03C142.808 35.028 141.38 33.67 139.658 33.67C137.922 33.67 136.508 35.028 136.508 37.03ZM145.242 42L149.302 31.5H151.262L147.202 42H145.242ZM156.57 42.14C153.826 42.14 151.502 40.082 151.502 37.03C151.502 33.978 153.826 31.92 156.57 31.92C159.3 31.92 161.638 33.978 161.638 37.03C161.638 40.082 159.3 42.14 156.57 42.14ZM153.42 37.03C153.42 39.032 154.834 40.39 156.57 40.39C158.292 40.39 159.72 39.032 159.72 37.03C159.72 35.028 158.292 33.67 156.57 33.67C154.834 33.67 153.42 35.028 153.42 37.03ZM167.712 42.14C164.968 42.14 162.644 40.082 162.644 37.03C162.644 33.978 164.968 31.92 167.712 31.92C170.442 31.92 172.78 33.978 172.78 37.03C172.78 40.082 170.442 42.14 167.712 42.14ZM164.562 37.03C164.562 39.032 165.976 40.39 167.712 40.39C169.434 40.39 170.862 39.032 170.862 37.03C170.862 35.028 169.434 33.67 167.712 33.67C165.976 33.67 164.562 35.028 164.562 37.03ZM178.855 42.14C176.111 42.14 173.787 40.082 173.787 37.03C173.787 33.978 176.111 31.92 178.855 31.92C181.585 31.92 183.923 33.978 183.923 37.03C183.923 40.082 181.585 42.14 178.855 42.14ZM175.705 37.03C175.705 39.032 177.119 40.39 178.855 40.39C180.577 40.39 182.005 39.032 182.005 37.03C182.005 35.028 180.577 33.67 178.855 33.67C177.119 33.67 175.705 35.028 175.705 37.03ZM189.997 42.14C187.253 42.14 184.929 40.082 184.929 37.03C184.929 33.978 187.253 31.92 189.997 31.92C192.727 31.92 195.065 33.978 195.065 37.03C195.065 40.082 192.727 42.14 189.997 42.14ZM186.847 37.03C186.847 39.032 188.261 40.39 189.997 40.39C191.719 40.39 193.147 39.032 193.147 37.03C193.147 35.028 191.719 33.67 189.997 33.67C188.261 33.67 186.847 35.028 186.847 37.03Z" fill="#212121"></path>
<path d="M47.765 237V226.35H51.53C53.84 226.35 55.34 227.79 55.34 229.965C55.34 232.14 53.84 233.58 51.53 233.58H49.82V237H47.765ZM49.82 231.69H51.35C52.46 231.69 53.255 231.21 53.255 229.965C53.255 228.735 52.46 228.24 51.35 228.24H49.82V231.69ZM56.5687 237V229.2H58.5787V231.225C58.8487 230.025 59.6137 229.05 61.0237 229.05C61.2037 229.05 61.3687 229.065 61.5487 229.11V231.03C61.3687 231 61.2187 230.985 61.0387 230.985C59.5237 230.985 58.5787 232.035 58.5787 233.595V237H56.5687ZM66.162 237.15C64.017 237.15 62.097 235.695 62.097 233.1C62.097 230.475 64.047 229.05 66.042 229.05C68.022 229.05 70.272 230.445 69.837 233.88H64.002C64.287 234.945 65.217 235.5 66.387 235.5C67.152 235.5 67.827 235.29 68.397 234.795L69.312 235.77C68.667 236.58 67.542 237.15 66.162 237.15ZM63.972 232.41H68.052C67.932 231.3 67.002 230.745 66.057 230.745C65.127 230.745 64.227 231.285 63.972 232.41ZM73.2966 237.15C71.7516 237.15 70.6116 236.4 70.3716 234.96L71.9766 234.525C72.1266 235.035 72.5016 235.56 73.2666 235.56C73.7766 235.56 74.2716 235.305 74.2716 234.75C74.2716 234.375 74.0316 234.105 73.4166 233.88L72.4566 233.52C71.1666 233.055 70.6266 232.23 70.6266 231.285C70.6266 229.89 71.8566 229.05 73.3266 229.05C74.7366 229.05 75.7716 229.845 76.0266 231.045L74.4516 231.45C74.2416 230.82 73.8366 230.625 73.4166 230.625C72.8916 230.625 72.5766 230.925 72.5766 231.3C72.5766 231.63 72.7716 231.915 73.3866 232.125L74.2566 232.455C75.2166 232.8 76.2666 233.37 76.2666 234.75C76.2666 236.31 74.9316 237.15 73.2966 237.15ZM81.1034 237.15C78.9584 237.15 77.0384 235.695 77.0384 233.1C77.0384 230.475 78.9884 229.05 80.9834 229.05C82.9634 229.05 85.2134 230.445 84.7784 233.88H78.9434C79.2284 234.945 80.1584 235.5 81.3284 235.5C82.0934 235.5 82.7684 235.29 83.3384 234.795L84.2534 235.77C83.6084 236.58 82.4834 237.15 81.1034 237.15ZM78.9134 232.41H82.9934C82.8734 231.3 81.9434 230.745 80.9984 230.745C80.0684 230.745 79.1684 231.285 78.9134 232.41ZM85.9828 237V229.2H87.9928V230.265C88.4278 229.575 89.2078 229.05 90.3778 229.05C91.9828 229.05 93.3328 230.04 93.3328 232.41V237H91.3228V232.74C91.3228 231.6 90.7078 230.85 89.6578 230.85C88.6228 230.85 87.9928 231.6 87.9928 232.74V237H85.9828ZM98.5947 237.15C96.5397 237.15 94.4847 235.74 94.4847 233.1C94.4847 230.46 96.5397 229.05 98.5947 229.05C99.9747 229.05 101.205 229.695 101.955 230.97L100.485 231.915C100.08 231.3 99.4197 230.865 98.6097 230.865C97.4847 230.865 96.4647 231.705 96.4647 233.1C96.4647 234.495 97.4847 235.335 98.6097 235.335C99.4197 235.335 100.08 234.9 100.485 234.285L101.955 235.23C101.205 236.49 99.9747 237.15 98.5947 237.15ZM103.107 237V229.2H105.117V237H103.107ZM103.107 228.12V226.35H105.117V228.12H103.107ZM110.027 237.15C108.212 237.15 106.277 235.8 106.277 233.1C106.277 230.4 108.212 229.05 110.027 229.05C111.422 229.05 112.322 229.815 112.517 230.25H112.562V229.2H114.572V237H112.562V235.95H112.517C112.322 236.385 111.422 237.15 110.027 237.15ZM108.257 233.1C108.257 234.555 109.307 235.35 110.432 235.35C111.557 235.35 112.607 234.57 112.607 233.1C112.607 231.63 111.557 230.85 110.432 230.85C109.307 230.85 108.257 231.645 108.257 233.1ZM116.1 237V226.35H118.11V237H116.1Z" fill="#272727"></path>
<path d="M89.455 297V292.35H84.175V297H82.885V286.35H84.175V291.15H89.455V286.35H90.745V297H89.455ZM96.184 297.15C94.159 297.15 92.134 295.71 92.134 293.1C92.134 290.49 94.159 289.05 96.184 289.05C98.209 289.05 100.234 290.49 100.234 293.1C100.234 295.71 98.209 297.15 96.184 297.15ZM93.394 293.1C93.394 294.945 94.744 295.995 96.184 295.995C97.624 295.995 98.974 294.945 98.974 293.1C98.974 291.255 97.624 290.205 96.184 290.205C94.744 290.205 93.394 291.255 93.394 293.1ZM101.635 297V289.2H102.895V291.135C103.18 290.01 103.96 289.05 105.4 289.05C105.58 289.05 105.73 289.065 105.85 289.11V290.295C105.715 290.265 105.595 290.25 105.415 290.25C103.96 290.25 102.895 291.345 102.895 293.085V297H101.635ZM110.476 297.15C108.586 297.15 106.651 295.77 106.651 293.1C106.651 290.43 108.586 289.05 110.476 289.05C111.931 289.05 113.026 289.845 113.401 290.67H113.446V289.2H114.706V297H113.446V295.53H113.401C113.026 296.355 111.931 297.15 110.476 297.15ZM107.911 293.1C107.911 295.035 109.306 295.995 110.686 295.995C112.096 295.995 113.491 295.02 113.491 293.1C113.491 291.18 112.096 290.205 110.686 290.205C109.306 290.205 107.911 291.165 107.911 293.1ZM110.236 288.225L111.616 285.9H112.711L111.301 288.225H110.236ZM116.474 297V289.2H117.734V291.135C118.019 290.01 118.799 289.05 120.239 289.05C120.419 289.05 120.569 289.065 120.689 289.11V290.295C120.554 290.265 120.434 290.25 120.254 290.25C118.799 290.25 117.734 291.345 117.734 293.085V297H116.474ZM122.084 297V289.2H123.344V297H122.084ZM122.084 287.52V286.35H123.344V287.52H122.084ZM128.791 297.15C126.766 297.15 124.741 295.71 124.741 293.1C124.741 290.49 126.766 289.05 128.791 289.05C130.816 289.05 132.841 290.49 132.841 293.1C132.841 295.71 130.816 297.15 128.791 297.15ZM126.001 293.1C126.001 294.945 127.351 295.995 128.791 295.995C130.231 295.995 131.581 294.945 131.581 293.1C131.581 291.255 130.231 290.205 128.791 290.205C127.351 290.205 126.001 291.255 126.001 293.1ZM136.318 297.15C134.863 297.15 133.813 296.37 133.573 295.035L134.623 294.75C134.833 295.575 135.448 296.1 136.318 296.1C137.053 296.1 137.788 295.74 137.788 294.885C137.788 294.24 137.338 293.91 136.438 293.535L135.733 293.265C134.443 292.74 133.903 291.975 133.903 291.09C133.903 289.86 134.968 289.05 136.318 289.05C137.563 289.05 138.493 289.74 138.763 290.79L137.758 291.09C137.518 290.445 137.053 290.085 136.363 290.085C135.688 290.085 135.148 290.445 135.148 291.105C135.148 291.6 135.463 291.99 136.273 292.32L136.903 292.575C138.133 293.055 139.033 293.595 139.033 294.885C139.033 296.43 137.728 297.15 136.318 297.15ZM151.312 297H150.052V295.53H150.007C149.632 296.355 148.537 297.15 147.082 297.15C145.192 297.15 143.257 295.77 143.257 293.1C143.257 290.43 145.192 289.05 147.082 289.05C148.537 289.05 149.632 289.845 150.007 290.67H150.052V286.35H151.312V297ZM144.517 293.1C144.517 295.035 145.912 295.995 147.292 295.995C148.702 295.995 150.097 295.02 150.097 293.1C150.097 291.18 148.702 290.205 147.292 290.205C145.912 290.205 144.517 291.165 144.517 293.1ZM153.08 297V289.2H154.34V297H153.08ZM153.08 287.52V286.35H154.34V287.52H153.08ZM158.408 297.15C156.953 297.15 155.903 296.37 155.663 295.035L156.713 294.75C156.923 295.575 157.538 296.1 158.408 296.1C159.143 296.1 159.878 295.74 159.878 294.885C159.878 294.24 159.428 293.91 158.528 293.535L157.823 293.265C156.533 292.74 155.993 291.975 155.993 291.09C155.993 289.86 157.058 289.05 158.408 289.05C159.653 289.05 160.583 289.74 160.853 290.79L159.848 291.09C159.608 290.445 159.143 290.085 158.453 290.085C157.778 290.085 157.238 290.445 157.238 291.105C157.238 291.6 157.553 291.99 158.363 292.32L158.993 292.575C160.223 293.055 161.123 293.595 161.123 294.885C161.123 296.43 159.818 297.15 158.408 297.15ZM162.514 299.85V289.2H163.774V290.67H163.819C164.194 289.845 165.289 289.05 166.744 289.05C168.634 289.05 170.569 290.43 170.569 293.1C170.569 295.77 168.634 297.15 166.744 297.15C165.289 297.15 164.194 296.355 163.819 295.53H163.774V299.85H162.514ZM163.729 293.1C163.729 295.02 165.124 295.995 166.534 295.995C167.914 295.995 169.309 295.035 169.309 293.1C169.309 291.165 167.914 290.205 166.534 290.205C165.124 290.205 163.729 291.18 163.729 293.1ZM175.637 297.15C173.612 297.15 171.587 295.71 171.587 293.1C171.587 290.49 173.612 289.05 175.637 289.05C177.662 289.05 179.687 290.49 179.687 293.1C179.687 295.71 177.662 297.15 175.637 297.15ZM172.847 293.1C172.847 294.945 174.197 295.995 175.637 295.995C177.077 295.995 178.427 294.945 178.427 293.1C178.427 291.255 177.077 290.205 175.637 290.205C174.197 290.205 172.847 291.255 172.847 293.1ZM181.088 297V289.2H182.348V290.475C182.753 289.725 183.608 289.05 184.958 289.05C186.593 289.05 188.003 290.07 188.003 292.41V297H186.743V292.59C186.743 291.015 185.813 290.205 184.568 290.205C183.323 290.205 182.348 291.015 182.348 292.59V297H181.088ZM189.775 297V289.2H191.035V297H189.775ZM189.91 288.225L191.29 285.9H192.385L190.975 288.225H189.91ZM195.597 297L192.282 289.2H193.587L196.182 295.44L198.777 289.2H200.082L196.767 297H195.597ZM204.508 297.15C202.408 297.15 200.503 295.695 200.503 293.1C200.503 290.475 202.423 289.05 204.388 289.05C206.368 289.05 208.438 290.475 208.123 293.565H201.703C201.898 295.2 203.143 296.07 204.643 296.07C205.558 296.07 206.398 295.74 206.968 295.125L207.598 295.77C206.893 296.64 205.768 297.15 204.508 297.15ZM201.703 292.605H207.013C206.923 291 205.708 290.145 204.403 290.145C203.113 290.145 201.898 290.97 201.703 292.605ZM209.565 297V289.2H210.825V297H209.565ZM209.565 287.52V286.35H210.825V287.52H209.565ZM214.892 297.15C213.437 297.15 212.387 296.37 212.147 295.035L213.197 294.75C213.407 295.575 214.022 296.1 214.892 296.1C215.627 296.1 216.362 295.74 216.362 294.885C216.362 294.24 215.912 293.91 215.012 293.535L214.307 293.265C213.017 292.74 212.477 291.975 212.477 291.09C212.477 289.86 213.542 289.05 214.892 289.05C216.137 289.05 217.067 289.74 217.337 290.79L216.332 291.09C216.092 290.445 215.627 290.085 214.937 290.085C214.262 290.085 213.722 290.445 213.722 291.105C213.722 291.6 214.037 291.99 214.847 292.32L215.477 292.575C216.707 293.055 217.607 293.595 217.607 294.885C217.607 296.43 216.302 297.15 214.892 297.15Z" fill="#272727"></path>
<path d="M226.15 237.15C223.255 237.15 220.735 234.945 220.735 231.675C220.735 228.405 223.255 226.2 226.15 226.2C229.03 226.2 231.55 228.405 231.55 231.675C231.55 234.945 229.03 237.15 226.15 237.15ZM222.055 231.675C222.055 234.255 223.99 235.905 226.15 235.905C228.295 235.905 230.23 234.255 230.23 231.675C230.23 229.095 228.295 227.445 226.15 227.445C223.99 227.445 222.055 229.095 222.055 231.675ZM233.175 237V229.2H234.435V230.475C234.84 229.725 235.695 229.05 237.045 229.05C238.68 229.05 240.09 230.07 240.09 232.41V237H238.83V232.59C238.83 231.015 237.9 230.205 236.655 230.205C235.41 230.205 234.435 231.015 234.435 232.59V237H233.175ZM241.862 237V226.35H243.122V237H241.862ZM244.894 237V229.2H246.154V237H244.894ZM244.894 227.52V226.35H246.154V227.52H244.894ZM247.926 237V229.2H249.186V230.475C249.591 229.725 250.446 229.05 251.796 229.05C253.431 229.05 254.841 230.07 254.841 232.41V237H253.581V232.59C253.581 231.015 252.651 230.205 251.406 230.205C250.161 230.205 249.186 231.015 249.186 232.59V237H247.926ZM260.243 237.15C258.143 237.15 256.238 235.695 256.238 233.1C256.238 230.475 258.158 229.05 260.123 229.05C262.103 229.05 264.173 230.475 263.858 233.565H257.438C257.633 235.2 258.878 236.07 260.378 236.07C261.293 236.07 262.133 235.74 262.703 235.125L263.333 235.77C262.628 236.64 261.503 237.15 260.243 237.15ZM257.438 232.605H262.748C262.658 231 261.443 230.145 260.138 230.145C258.848 230.145 257.633 230.97 257.438 232.605Z" fill="#8F8F96"></path>
<path d="M115.228 184.12C113.86 184.12 112.9 183.34 112.516 182.404L113.104 182.08C113.368 182.764 114.148 183.448 115.24 183.448C116.464 183.448 117.484 182.584 117.484 181.216C117.484 179.884 116.524 178.972 115.288 178.972C114.508 178.972 113.788 179.332 113.356 179.956L112.744 179.74L113.32 175.48H117.352V176.14H113.896L113.476 179.14C113.884 178.648 114.592 178.336 115.384 178.336C116.908 178.336 118.192 179.452 118.192 181.216C118.192 182.956 116.908 184.12 115.228 184.12ZM123.681 184.12C121.377 184.12 119.409 182.368 119.409 179.74C119.409 177.112 121.377 175.36 123.681 175.36C125.985 175.36 127.953 177.112 127.953 179.74C127.953 182.368 125.985 184.12 123.681 184.12ZM120.141 179.74C120.141 181.96 121.809 183.424 123.681 183.424C125.553 183.424 127.221 181.96 127.221 179.74C127.221 177.52 125.553 176.056 123.681 176.056C121.809 176.056 120.141 177.52 120.141 179.74ZM129.134 180.928V180.328H132.854V180.928H129.134ZM136.698 184.12C135.186 184.12 133.974 183.052 133.974 181.408C133.974 180.064 134.814 179.044 135.27 178.408L137.346 175.48H138.174L135.498 179.236C135.966 178.924 136.434 178.852 136.806 178.852C138.258 178.852 139.434 179.884 139.434 181.444C139.434 183.052 138.21 184.12 136.698 184.12ZM134.682 181.468C134.682 182.704 135.618 183.448 136.698 183.448C137.778 183.448 138.726 182.704 138.726 181.468C138.726 180.244 137.778 179.5 136.698 179.5C135.618 179.5 134.682 180.244 134.682 181.468ZM144.799 184.12C142.495 184.12 140.527 182.368 140.527 179.74C140.527 177.112 142.495 175.36 144.799 175.36C147.103 175.36 149.071 177.112 149.071 179.74C149.071 182.368 147.103 184.12 144.799 184.12ZM141.259 179.74C141.259 181.96 142.927 183.424 144.799 183.424C146.671 183.424 148.339 181.96 148.339 179.74C148.339 177.52 146.671 176.056 144.799 176.056C142.927 176.056 141.259 177.52 141.259 179.74ZM157.28 184V180.376C157.28 179.128 156.728 178.312 155.588 178.312C154.448 178.312 153.812 179.128 153.812 180.376V184H153.08V177.76H153.812V178.78C154.1 178.192 154.712 177.64 155.768 177.64C156.692 177.64 157.46 178.072 157.808 179.008C158.072 178.348 158.744 177.64 159.956 177.64C161.252 177.64 162.212 178.456 162.212 180.304V184H161.48V180.376C161.48 179.128 160.928 178.312 159.788 178.312C158.66 178.312 158.012 179.128 158.012 180.376V184H157.28ZM163.721 184V177.76H164.453V184H163.721ZM163.721 176.188V175.48H164.453V176.188H163.721ZM165.959 184V177.76H166.691V178.852C167.003 178.24 167.699 177.64 168.851 177.64C170.183 177.64 171.323 178.468 171.323 180.328V184H170.591V180.412C170.591 178.984 169.739 178.312 168.659 178.312C167.591 178.312 166.691 178.984 166.691 180.412V184H165.959ZM178.202 177.76V184H177.47V182.908C177.158 183.52 176.462 184.12 175.31 184.12C173.978 184.12 172.838 183.292 172.838 181.432V177.76H173.57V181.348C173.57 182.776 174.422 183.448 175.502 183.448C176.57 183.448 177.47 182.776 177.47 181.348V177.76H178.202ZM181.421 184.072C180.701 184.072 180.221 183.724 180.221 182.944V178.372H179.417V177.76H180.221V176.164H180.953V177.76H182.165V178.372H180.953V182.788C180.953 183.196 181.157 183.412 181.577 183.412C181.721 183.412 181.913 183.388 182.141 183.292V183.892C181.925 184.036 181.661 184.072 181.421 184.072ZM186.289 184.12C184.681 184.12 183.073 182.956 183.073 180.88C183.073 178.804 184.681 177.64 186.289 177.64C187.897 177.64 189.505 178.804 189.505 180.88C189.505 182.956 187.897 184.12 186.289 184.12ZM183.805 180.88C183.805 182.536 185.029 183.448 186.289 183.448C187.549 183.448 188.773 182.536 188.773 180.88C188.773 179.224 187.549 178.312 186.289 178.312C185.029 178.312 183.805 179.224 183.805 180.88ZM192.321 184.12C191.181 184.12 190.377 183.484 190.185 182.464L190.821 182.284C191.013 183.064 191.589 183.484 192.321 183.484C192.993 183.484 193.665 183.148 193.665 182.368C193.665 181.732 193.233 181.444 192.417 181.096L191.937 180.904C190.905 180.484 190.485 179.884 190.485 179.2C190.485 178.276 191.265 177.64 192.297 177.64C193.233 177.64 193.941 178.156 194.157 178.948L193.569 179.14C193.365 178.612 192.981 178.264 192.321 178.264C191.721 178.264 191.205 178.576 191.205 179.2C191.205 179.668 191.493 180.028 192.225 180.328L192.645 180.496C193.725 180.94 194.397 181.36 194.397 182.368C194.397 183.58 193.353 184.12 192.321 184.12Z" fill="#A4A4A4"></path>
<path d="M101.049 54.9271C101.348 54.0057 102.652 54.0057 102.951 54.9271L104.47 59.6008C104.604 60.0128 104.987 60.2918 105.421 60.2918H110.335C111.304 60.2918 111.706 61.5314 110.923 62.1008L106.947 64.9894C106.597 65.244 106.45 65.6954 106.584 66.1074L108.102 70.7812C108.402 71.7025 107.347 72.4686 106.564 71.8992L102.588 69.0106C102.237 68.756 101.763 68.756 101.412 69.0106L97.4365 71.8992C96.6528 72.4686 95.5983 71.7025 95.8976 70.7812L97.4162 66.1074C97.5501 65.6954 97.4034 65.244 97.053 64.9894L93.0772 62.1008C92.2935 61.5314 92.6963 60.2918 93.665 60.2918H98.5793C99.0125 60.2918 99.3965 60.0128 99.5303 59.6008L101.049 54.9271Z" fill="#F2C94C"></path>
<path d="M125.049 54.9271C125.348 54.0057 126.652 54.0057 126.951 54.9271L128.47 59.6008C128.604 60.0128 128.987 60.2918 129.421 60.2918H134.335C135.304 60.2918 135.706 61.5314 134.923 62.1008L130.947 64.9894C130.597 65.244 130.45 65.6954 130.584 66.1074L132.102 70.7812C132.402 71.7025 131.347 72.4686 130.564 71.8992L126.588 69.0106C126.237 68.756 125.763 68.756 125.412 69.0106L121.436 71.8992C120.653 72.4686 119.598 71.7025 119.898 70.7812L121.416 66.1074C121.55 65.6954 121.403 65.244 121.053 64.9894L117.077 62.1008C116.294 61.5314 116.696 60.2918 117.665 60.2918H122.579C123.013 60.2918 123.396 60.0128 123.53 59.6008L125.049 54.9271Z" fill="#F2C94C"></path>
<path d="M149.049 54.9271C149.348 54.0057 150.652 54.0057 150.951 54.9271L152.47 59.6008C152.604 60.0128 152.987 60.2918 153.421 60.2918H158.335C159.304 60.2918 159.706 61.5314 158.923 62.1008L154.947 64.9894C154.597 65.244 154.45 65.6954 154.584 66.1074L156.102 70.7812C156.402 71.7025 155.347 72.4686 154.564 71.8992L150.588 69.0106C150.237 68.756 149.763 68.756 149.412 69.0106L145.436 71.8992C144.653 72.4686 143.598 71.7025 143.898 70.7812L145.416 66.1074C145.55 65.6954 145.403 65.244 145.053 64.9894L141.077 62.1008C140.294 61.5314 140.696 60.2918 141.665 60.2918H146.579C147.013 60.2918 147.396 60.0128 147.53 59.6008L149.049 54.9271Z" fill="#F2C94C"></path>
<path d="M173.049 54.9271C173.348 54.0057 174.652 54.0057 174.951 54.9271L176.47 59.6008C176.604 60.0128 176.987 60.2918 177.421 60.2918H182.335C183.304 60.2918 183.706 61.5314 182.923 62.1008L178.947 64.9894C178.597 65.244 178.45 65.6954 178.584 66.1074L180.102 70.7812C180.402 71.7025 179.347 72.4686 178.564 71.8992L174.588 69.0106C174.237 68.756 173.763 68.756 173.412 69.0106L169.436 71.8992C168.653 72.4686 167.598 71.7025 167.898 70.7812L169.416 66.1074C169.55 65.6954 169.403 65.244 169.053 64.9894L165.077 62.1008C164.294 61.5314 164.696 60.2918 165.665 60.2918H170.579C171.013 60.2918 171.396 60.0128 171.53 59.6008L173.049 54.9271Z" fill="#F2C94C"></path>
<path d="M197.049 54.9271C197.348 54.0057 198.652 54.0057 198.951 54.9271L200.47 59.6008C200.604 60.0128 200.987 60.2918 201.421 60.2918H206.335C207.304 60.2918 207.706 61.5314 206.923 62.1008L202.947 64.9894C202.597 65.244 202.45 65.6954 202.584 66.1074L204.102 70.7812C204.402 71.7025 203.347 72.4686 202.564 71.8992L198.588 69.0106C198.237 68.756 197.763 68.756 197.412 69.0106L193.436 71.8992C192.653 72.4686 191.598 71.7025 191.898 70.7812L193.416 66.1074C193.55 65.6954 193.403 65.244 193.053 64.9894L189.077 62.1008C188.294 61.5314 188.696 60.2918 189.665 60.2918H194.579C195.013 60.2918 195.396 60.0128 195.53 59.6008L197.049 54.9271Z" fill="#F2C94C"></path>
<rect y="97" width="85" height="16" rx="8" fill="#F4F4F4"></rect>
<rect x="1" y="249" width="300" height="8" rx="4" fill="#F4F4F4"></rect>
<rect y="249" width="150" height="8" rx="4" fill="#FFBBAA"></rect>
<rect y="126" width="119" height="16" rx="8" fill="#F4F4F4"></rect>
<rect x="128" y="126" width="85" height="16" rx="8" fill="#F4F4F4"></rect>
<rect x="95" y="97" width="133" height="16" rx="8" fill="#F4F4F4"></rect>
<rect x="239" y="97" width="50" height="16" rx="8" fill="#F4F4F4"></rect>
<rect x="0.5" y="159.5" width="99" height="39" rx="19.5" fill="#FCECE6" stroke="#FFBBAA"></rect>
<path d="M68.8447 66.2501C64.0518 57.9207 56.3692 52.2336 47.468 50.1834C51.6977 48.4414 55.1944 45.2771 57.3607 41.2312C59.5271 37.1852 60.2287 32.5086 59.3456 28.0004C58.4625 23.4922 56.0495 19.4321 52.519 16.5138C48.9884 13.5955 44.5594 12 39.9885 12C35.4176 12 30.9885 13.5955 27.458 16.5138C23.9274 19.4321 21.5145 23.4922 20.6314 28.0004C19.7483 32.5086 20.4498 37.1852 22.6162 41.2312C24.7825 45.2771 28.2793 48.4414 32.5089 50.1834C23.6194 52.2249 15.9251 57.9207 11.1322 66.2501C10.9935 66.5167 10.9626 66.8269 11.046 67.1159C11.1294 67.4049 11.3206 67.6503 11.5797 67.8008C11.8389 67.9514 12.1459 67.9955 12.4366 67.9239C12.7273 67.8524 12.9793 67.6706 13.1399 67.4167C18.809 57.5562 28.8533 51.6678 39.9885 51.6678C51.1236 51.6678 61.1679 57.5562 66.837 67.4167C66.9388 67.5939 67.0851 67.741 67.2613 67.8434C67.4375 67.9458 67.6374 67.9998 67.8409 68C68.0448 68.0006 68.2452 67.9462 68.4211 67.8425C68.6872 67.6876 68.8812 67.4329 68.9606 67.1344C69.04 66.8358 68.9983 66.5178 68.8447 66.2501ZM22.5807 31.8359C22.5807 28.375 23.6017 24.9918 25.5144 22.1141C27.4272 19.2365 30.146 16.9936 33.3268 15.6692C36.5077 14.3447 40.0078 13.9982 43.3846 14.6734C46.7613 15.3486 49.8631 17.0152 52.2976 19.4624C54.7321 21.9097 56.3901 25.0276 57.0617 28.4221C57.7334 31.8165 57.3887 35.3349 56.0711 38.5324C54.7536 41.7299 52.5224 44.4628 49.6597 46.3856C46.797 48.3084 43.4314 49.3347 39.9885 49.3347C35.3733 49.3293 30.9487 47.4839 27.6853 44.2034C24.4218 40.9229 22.5861 36.4752 22.5807 31.8359Z" fill="#FFBBAA"></path>
<path d="M202 230L206.553 227.724C206.705 227.648 206.875 227.612 207.045 227.62C207.215 227.627 207.381 227.678 207.526 227.768C207.671 227.857 207.79 227.982 207.873 228.131C207.956 228.28 208 228.448 208 228.618V235.382C208 235.552 207.956 235.72 207.873 235.869C207.79 236.017 207.671 236.143 207.526 236.232C207.381 236.322 207.215 236.373 207.045 236.38C206.875 236.388 206.705 236.352 206.553 236.276L202 234V230ZM190 228C190 227.47 190.211 226.961 190.586 226.586C190.961 226.211 191.47 226 192 226H200C200.53 226 201.039 226.211 201.414 226.586C201.789 226.961 202 227.47 202 228V236C202 236.53 201.789 237.039 201.414 237.414C201.039 237.789 200.53 238 200 238H192C191.47 238 190.961 237.789 190.586 237.414C190.211 237.039 190 236.53 190 236V228Z" stroke="#8F8F96" stroke-width="2" stroke-linecap="round" stroke-linejoin="round"></path>
<path d="M30.885 185V174.35H34.35C36.645 174.35 38.025 175.79 38.025 177.815C38.025 179.855 36.645 181.295 34.35 181.295H32.175V185H30.885ZM32.175 180.08H34.245C35.745 180.08 36.705 179.315 36.705 177.815C36.705 176.315 35.745 175.55 34.245 175.55H32.175V180.08ZM39.4983 185V177.2H40.7583V179.135C41.0433 178.01 41.8233 177.05 43.2633 177.05C43.4433 177.05 43.5933 177.065 43.7133 177.11V178.295C43.5783 178.265 43.4583 178.25 43.2783 178.25C41.8233 178.25 40.7583 179.345 40.7583 181.085V185H39.4983ZM48.5189 185.15C46.4189 185.15 44.5139 183.695 44.5139 181.1C44.5139 178.475 46.4339 177.05 48.3989 177.05C50.3789 177.05 52.4489 178.475 52.1339 181.565H45.7139C45.9089 183.2 47.1539 184.07 48.6539 184.07C49.5689 184.07 50.4089 183.74 50.9789 183.125L51.6089 183.77C50.9039 184.64 49.7789 185.15 48.5189 185.15ZM45.7139 180.605H51.0239C50.9339 179 49.7189 178.145 48.4139 178.145C47.1239 178.145 45.9089 178.97 45.7139 180.605ZM56.2754 187.64C57.0404 187.685 57.6404 187.535 57.6404 186.935C57.6404 186.47 57.2804 186.155 56.4104 186.275L56.1854 185.9L56.6954 185.12C54.8654 184.88 53.2004 183.47 53.2004 181.1C53.2004 178.49 55.2254 177.05 57.2504 177.05C58.6004 177.05 59.8754 177.695 60.5804 178.97L59.6204 179.54C59.1254 178.7 58.2404 178.205 57.2654 178.205C55.8554 178.205 54.4604 179.255 54.4604 181.1C54.4604 182.945 55.8554 183.995 57.2654 183.995C58.2404 183.995 59.1254 183.5 59.6204 182.66L60.5804 183.23C59.9504 184.355 58.8704 185 57.6704 185.135L57.3404 185.615C58.0904 185.615 58.6454 186.11 58.6454 186.86C58.6454 187.925 57.4454 188.42 56.2754 188.18V187.64ZM65.5268 185.15C63.5018 185.15 61.4768 183.71 61.4768 181.1C61.4768 178.49 63.5018 177.05 65.5268 177.05C67.5518 177.05 69.5768 178.49 69.5768 181.1C69.5768 183.71 67.5518 185.15 65.5268 185.15ZM62.7368 181.1C62.7368 182.945 64.0868 183.995 65.5268 183.995C66.9668 183.995 68.3168 182.945 68.3168 181.1C68.3168 179.255 66.9668 178.205 65.5268 178.205C64.0868 178.205 62.7368 179.255 62.7368 181.1Z" fill="#8F8F96"></path>
<path fill-rule="evenodd" clip-rule="evenodd" d="M33.9967 230.683C33.9967 231.562 33.6476 232.405 33.026 233.026C32.4045 233.648 31.5615 233.997 30.6825 233.997C29.8035 233.997 28.9604 233.648 28.3389 233.026C27.7173 232.405 27.3682 231.562 27.3682 230.683C27.3682 229.804 27.7173 228.961 28.3389 228.339C28.9604 227.718 29.8035 227.368 30.6825 227.368C31.5615 227.368 32.4045 227.718 33.026 228.339C33.6476 228.961 33.9967 229.804 33.9967 230.683ZM32.3396 230.683C32.3396 231.122 32.165 231.544 31.8542 231.854C31.5435 232.165 31.122 232.34 30.6825 232.34C30.243 232.34 29.8215 232.165 29.5107 231.854C29.1999 231.544 29.0253 231.122 29.0253 230.683C29.0253 230.243 29.1999 229.822 29.5107 229.511C29.8215 229.2 30.243 229.025 30.6825 229.025C31.122 229.025 31.5435 229.2 31.8542 229.511C32.165 229.822 32.3396 230.243 32.3396 230.683Z" fill="#272727"></path>
<path fill-rule="evenodd" clip-rule="evenodd" d="M25.315 235.858C24.2469 234.841 23.5043 233.53 23.1812 232.091C22.858 230.652 22.9689 229.149 23.4998 227.773C24.0306 226.397 24.9576 225.209 26.1634 224.36C27.3693 223.511 28.7999 223.038 30.2744 223.002C31.7488 222.966 33.2009 223.368 34.4469 224.157C35.693 224.946 36.677 226.087 37.2747 227.435C37.8723 228.784 38.0567 230.279 37.8045 231.732C37.5523 233.185 36.8748 234.531 35.8578 235.599L30.7157 241L25.315 235.858ZM34.658 234.457L30.6585 238.658L26.4576 234.658C25.6269 233.867 25.0493 232.847 24.798 231.728C24.5467 230.609 24.633 229.44 25.0458 228.37C25.4587 227.3 26.1797 226.376 27.1175 225.716C28.0554 225.055 29.168 224.688 30.3148 224.659C31.4616 224.631 32.5909 224.944 33.5601 225.557C34.5292 226.171 35.2946 227.058 35.7595 228.107C36.2244 229.156 36.3679 230.319 36.1718 231.449C35.9758 232.579 35.449 233.626 34.658 234.457Z" fill="#272727"></path>
<ellipse cx="23" cy="293" rx="20" ry="19" fill="#F2F2F2"></ellipse>
<ellipse cx="280" cy="293" rx="20" ry="19" fill="#F2F2F2"></ellipse>
<path d="M276.397 288.621C276.104 288.328 276.104 287.853 276.397 287.56C276.69 287.267 277.164 287.267 277.457 287.56L282.706 292.807C282.799 292.9 282.873 293.01 282.924 293.131C282.974 293.252 283 293.382 283 293.513C283 293.645 282.974 293.775 282.924 293.896C282.873 294.017 282.799 294.127 282.706 294.22L277.457 299.47C277.164 299.763 276.69 299.763 276.397 299.47C276.104 299.177 276.104 298.703 276.397 298.41L280.584 294.222C280.975 293.832 280.975 293.198 280.584 292.808L276.397 288.621Z" fill="#8F8F96"></path>
<path d="M25.6034 298.379C25.8964 298.672 25.8963 299.147 25.6032 299.44C25.3103 299.733 24.8357 299.733 24.5429 299.44L19.294 294.193C19.2008 294.1 19.1269 293.99 19.0764 293.869C19.026 293.748 19 293.618 19 293.486C19 293.355 19.026 293.225 19.0764 293.104C19.1269 292.983 19.2008 292.873 19.294 292.78L24.5429 287.53C24.8357 287.237 25.3103 287.237 25.603 287.53C25.8957 287.823 25.8957 288.297 25.603 288.59L21.4159 292.778C21.0255 293.168 21.0255 293.802 21.416 294.192L25.6034 298.379Z" fill="#8F8F96"></path>
<rect x="1" y="329" width="70" height="33" rx="10" fill="#DDE2E8"></rect>
<rect x="77" y="329" width="70" height="33" rx="10" fill="#DDE2E8"></rect>
<rect x="153" y="329" width="70" height="33" rx="10" fill="#DDE2E8"></rect>
<rect x="229" y="329" width="70" height="33" rx="10" fill="#DDE2E8"></rect>
<rect x="1" y="370" width="70" height="33" rx="10" fill="#DDE2E8"></rect>
<rect x="77" y="370" width="70" height="33" rx="10" fill="#DDE2E8"></rect>
<rect x="153" y="370" width="70" height="33" rx="10" fill="#DDE2E8"></rect>
<rect y="420" width="300" height="50" rx="10" fill="#FCE3DB"></rect>
<path d="M121.624 451L117.256 439.64H119.624L122.792 448.264L125.96 439.64H128.328L123.944 451H121.624ZM131.971 451.16C129.683 451.16 127.635 449.608 127.635 446.84C127.635 444.04 129.715 442.52 131.843 442.52C133.955 442.52 136.355 444.008 135.891 447.672H129.667C129.971 448.808 130.963 449.4 132.211 449.4C133.027 449.4 133.747 449.176 134.355 448.648L135.331 449.688C134.643 450.552 133.443 451.16 131.971 451.16ZM129.635 446.104H133.987C133.859 444.92 132.867 444.328 131.859 444.328C130.867 444.328 129.907 444.904 129.635 446.104ZM137.175 451V442.68H139.319V444.84C139.607 443.56 140.423 442.52 141.927 442.52C142.119 442.52 142.295 442.536 142.487 442.584V444.632C142.295 444.6 142.135 444.584 141.943 444.584C140.327 444.584 139.319 445.704 139.319 447.368V451H137.175ZM146.691 451V439.64H150.707C153.171 439.64 154.771 441.176 154.771 443.496C154.771 445.816 153.171 447.352 150.707 447.352H148.883V451H146.691ZM148.883 445.336H150.515C151.699 445.336 152.547 444.824 152.547 443.496C152.547 442.184 151.699 441.656 150.515 441.656H148.883V445.336ZM159.705 451.16C157.417 451.16 155.369 449.608 155.369 446.84C155.369 444.04 157.449 442.52 159.577 442.52C161.689 442.52 164.089 444.008 163.625 447.672H157.401C157.705 448.808 158.697 449.4 159.945 449.4C160.761 449.4 161.481 449.176 162.089 448.648L163.065 449.688C162.377 450.552 161.177 451.16 159.705 451.16ZM157.369 446.104H161.721C161.593 444.92 160.601 444.328 159.593 444.328C158.601 444.328 157.641 444.904 157.369 446.104ZM164.91 451V442.68H167.054V444.84C167.342 443.56 168.158 442.52 169.662 442.52C169.854 442.52 170.03 442.536 170.222 442.584V444.632C170.03 444.6 169.87 444.584 169.678 444.584C168.062 444.584 167.054 445.704 167.054 447.368V451H164.91ZM171.937 442.248C171.937 439.784 173.681 439.288 174.705 439.288C175.169 439.288 175.761 439.336 176.225 439.608V441.288C175.857 441.096 175.441 441.112 175.297 441.112C174.513 441.112 174.081 441.544 174.081 442.376V442.68H179.329V451H177.185V444.392H174.081V451H171.937V444.392H170.881V442.68H171.937V442.248ZM177.185 441.528V439.64H179.329V441.528H177.185ZM180.957 451V439.64H183.101V451H180.957Z" fill="#2B695B"></path>
<path d="M18.184 350V342.369H16.689V340.77H19.939V350H18.184ZM26.1267 350.13C23.5787 350.13 21.4207 348.219 21.4207 345.385C21.4207 342.551 23.5787 340.64 26.1267 340.64C28.6617 340.64 30.8327 342.551 30.8327 345.385C30.8327 348.219 28.6617 350.13 26.1267 350.13ZM23.2017 345.385C23.2017 347.244 24.5147 348.505 26.1267 348.505C27.7257 348.505 29.0517 347.244 29.0517 345.385C29.0517 343.526 27.7257 342.265 26.1267 342.265C24.5147 342.265 23.2017 343.526 23.2017 345.385ZM32.9863 350.13C32.4403 350.13 31.9853 349.727 31.9853 349.129C31.9853 348.531 32.4403 348.128 32.9863 348.128C33.5193 348.128 33.9873 348.531 33.9873 349.129C33.9873 349.727 33.5193 350.13 32.9863 350.13ZM31.9853 344.202C31.9853 343.604 32.4403 343.201 32.9863 343.201C33.5193 343.201 33.9873 343.604 33.9873 344.202C33.9873 344.8 33.5193 345.203 32.9863 345.203C32.4403 345.203 31.9853 344.8 31.9853 344.202ZM39.7869 350.13C37.2389 350.13 35.0809 348.219 35.0809 345.385C35.0809 342.551 37.2389 340.64 39.7869 340.64C42.3219 340.64 44.4929 342.551 44.4929 345.385C44.4929 348.219 42.3219 350.13 39.7869 350.13ZM36.8619 345.385C36.8619 347.244 38.1749 348.505 39.7869 348.505C41.3859 348.505 42.7119 347.244 42.7119 345.385C42.7119 343.526 41.3859 342.265 39.7869 342.265C38.1749 342.265 36.8619 343.526 36.8619 345.385ZM50.1335 350.13C47.5855 350.13 45.4275 348.219 45.4275 345.385C45.4275 342.551 47.5855 340.64 50.1335 340.64C52.6685 340.64 54.8395 342.551 54.8395 345.385C54.8395 348.219 52.6685 350.13 50.1335 350.13ZM47.2085 345.385C47.2085 347.244 48.5215 348.505 50.1335 348.505C51.7325 348.505 53.0585 347.244 53.0585 345.385C53.0585 343.526 51.7325 342.265 50.1335 342.265C48.5215 342.265 47.2085 343.526 47.2085 345.385Z" fill="#272727"></path>
<path d="M97.184 350V342.369H95.689V340.77H98.939V350H97.184ZM101.957 350V342.369H100.462V340.77H103.712V350H101.957ZM106.172 350.13C105.626 350.13 105.171 349.727 105.171 349.129C105.171 348.531 105.626 348.128 106.172 348.128C106.705 348.128 107.173 348.531 107.173 349.129C107.173 349.727 106.705 350.13 106.172 350.13ZM105.171 344.202C105.171 343.604 105.626 343.201 106.172 343.201C106.705 343.201 107.173 343.604 107.173 344.202C107.173 344.8 106.705 345.203 106.172 345.203C105.626 345.203 105.171 344.8 105.171 344.202ZM112.972 350.13C110.424 350.13 108.266 348.219 108.266 345.385C108.266 342.551 110.424 340.64 112.972 340.64C115.507 340.64 117.678 342.551 117.678 345.385C117.678 348.219 115.507 350.13 112.972 350.13ZM110.047 345.385C110.047 347.244 111.36 348.505 112.972 348.505C114.571 348.505 115.897 347.244 115.897 345.385C115.897 343.526 114.571 342.265 112.972 342.265C111.36 342.265 110.047 343.526 110.047 345.385ZM123.319 350.13C120.771 350.13 118.613 348.219 118.613 345.385C118.613 342.551 120.771 340.64 123.319 340.64C125.854 340.64 128.025 342.551 128.025 345.385C128.025 348.219 125.854 350.13 123.319 350.13ZM120.394 345.385C120.394 347.244 121.707 348.505 123.319 348.505C124.918 348.505 126.244 347.244 126.244 345.385C126.244 343.526 124.918 342.265 123.319 342.265C121.707 342.265 120.394 343.526 120.394 345.385Z" fill="#272727"></path>
<path d="M171.184 350V342.369H169.689V340.77H172.939V350H171.184ZM177.229 346.113C178.282 344.735 178.672 344.241 178.672 343.5C178.672 342.512 177.957 342.265 177.476 342.265C176.917 342.265 176.189 342.603 176.189 343.656V343.89H174.421V343.5C174.421 341.966 175.448 340.64 177.502 340.64C179.361 340.64 180.518 341.771 180.518 343.253C180.518 344.462 179.764 345.333 178.997 346.321L177.359 348.453H180.518V350H174.291L177.229 346.113ZM182.673 350.13C182.127 350.13 181.672 349.727 181.672 349.129C181.672 348.531 182.127 348.128 182.673 348.128C183.206 348.128 183.674 348.531 183.674 349.129C183.674 349.727 183.206 350.13 182.673 350.13ZM181.672 344.202C181.672 343.604 182.127 343.201 182.673 343.201C183.206 343.201 183.674 343.604 183.674 344.202C183.674 344.8 183.206 345.203 182.673 345.203C182.127 345.203 181.672 344.8 181.672 344.202ZM189.473 350.13C186.925 350.13 184.767 348.219 184.767 345.385C184.767 342.551 186.925 340.64 189.473 340.64C192.008 340.64 194.179 342.551 194.179 345.385C194.179 348.219 192.008 350.13 189.473 350.13ZM186.548 345.385C186.548 347.244 187.861 348.505 189.473 348.505C191.072 348.505 192.398 347.244 192.398 345.385C192.398 343.526 191.072 342.265 189.473 342.265C187.861 342.265 186.548 343.526 186.548 345.385ZM199.82 350.13C197.272 350.13 195.114 348.219 195.114 345.385C195.114 342.551 197.272 340.64 199.82 340.64C202.355 340.64 204.526 342.551 204.526 345.385C204.526 348.219 202.355 350.13 199.82 350.13ZM196.895 345.385C196.895 347.244 198.208 348.505 199.82 348.505C201.419 348.505 202.745 347.244 202.745 345.385C202.745 343.526 201.419 342.265 199.82 342.265C198.208 342.265 196.895 343.526 196.895 345.385Z" fill="#272727"></path>
<path d="M248.184 350V342.369H246.689V340.77H249.939V350H248.184ZM255.256 350V347.933H251.356V346.399L255.256 340.77H257.037V346.399H258.012V347.933H257.037V350H255.256ZM253.124 346.399H255.256V343.162L253.124 346.399ZM260.041 350.13C259.495 350.13 259.04 349.727 259.04 349.129C259.04 348.531 259.495 348.128 260.041 348.128C260.574 348.128 261.042 348.531 261.042 349.129C261.042 349.727 260.574 350.13 260.041 350.13ZM259.04 344.202C259.04 343.604 259.495 343.201 260.041 343.201C260.574 343.201 261.042 343.604 261.042 344.202C261.042 344.8 260.574 345.203 260.041 345.203C259.495 345.203 259.04 344.8 259.04 344.202ZM266.842 350.13C264.294 350.13 262.136 348.219 262.136 345.385C262.136 342.551 264.294 340.64 266.842 340.64C269.377 340.64 271.548 342.551 271.548 345.385C271.548 348.219 269.377 350.13 266.842 350.13ZM263.917 345.385C263.917 347.244 265.23 348.505 266.842 348.505C268.441 348.505 269.767 347.244 269.767 345.385C269.767 343.526 268.441 342.265 266.842 342.265C265.23 342.265 263.917 343.526 263.917 345.385ZM277.188 350.13C274.64 350.13 272.482 348.219 272.482 345.385C272.482 342.551 274.64 340.64 277.188 340.64C279.723 340.64 281.894 342.551 281.894 345.385C281.894 348.219 279.723 350.13 277.188 350.13ZM274.263 345.385C274.263 347.244 275.576 348.505 277.188 348.505C278.787 348.505 280.113 347.244 280.113 345.385C280.113 343.526 278.787 342.265 277.188 342.265C275.576 342.265 274.263 343.526 274.263 345.385Z" fill="#272727"></path>
<path d="M19.184 391V383.369H17.689V381.77H20.939V391H19.184ZM25.3457 391.13C23.8247 391.13 22.7197 390.324 22.2907 389.232L23.6297 388.491C23.7727 388.933 24.3837 389.57 25.2937 389.57C26.1127 389.57 26.9837 389.063 26.9837 387.919C26.9837 386.866 26.2167 386.242 25.3327 386.242C24.5007 386.242 24.0197 386.749 23.8507 387.022L22.4857 386.424L23.0967 381.77H27.7897V383.291H24.4617L24.1757 385.293C24.2537 385.163 24.8387 384.799 25.7227 384.799C27.2437 384.799 28.6997 385.93 28.6997 387.906C28.6997 389.947 27.1657 391.13 25.3457 391.13ZM30.7744 391.13C30.2284 391.13 29.7734 390.727 29.7734 390.129C29.7734 389.531 30.2284 389.128 30.7744 389.128C31.3074 389.128 31.7754 389.531 31.7754 390.129C31.7754 390.727 31.3074 391.13 30.7744 391.13ZM29.7734 385.202C29.7734 384.604 30.2284 384.201 30.7744 384.201C31.3074 384.201 31.7754 384.604 31.7754 385.202C31.7754 385.8 31.3074 386.203 30.7744 386.203C30.2284 386.203 29.7734 385.8 29.7734 385.202ZM37.5749 391.13C35.0269 391.13 32.8689 389.219 32.8689 386.385C32.8689 383.551 35.0269 381.64 37.5749 381.64C40.1099 381.64 42.2809 383.551 42.2809 386.385C42.2809 389.219 40.1099 391.13 37.5749 391.13ZM34.6499 386.385C34.6499 388.244 35.9629 389.505 37.5749 389.505C39.1739 389.505 40.4999 388.244 40.4999 386.385C40.4999 384.526 39.1739 383.265 37.5749 383.265C35.9629 383.265 34.6499 384.526 34.6499 386.385ZM47.9216 391.13C45.3736 391.13 43.2156 389.219 43.2156 386.385C43.2156 383.551 45.3736 381.64 47.9216 381.64C50.4566 381.64 52.6276 383.551 52.6276 386.385C52.6276 389.219 50.4566 391.13 47.9216 391.13ZM44.9966 386.385C44.9966 388.244 46.3096 389.505 47.9216 389.505C49.5206 389.505 50.8466 388.244 50.8466 386.385C50.8466 384.526 49.5206 383.265 47.9216 383.265C46.3096 383.265 44.9966 384.526 44.9966 386.385Z" fill="#272727"></path>
<path d="M95.184 391V383.369H93.689V381.77H96.939V391H95.184ZM101.45 391.13C99.8117 391.13 98.3557 390.012 98.3557 388.088C98.3557 386.658 99.1357 385.631 99.7337 384.825L101.944 381.77H103.907L101.294 385.371C101.476 385.332 101.671 385.306 101.866 385.306C103.322 385.306 104.57 386.437 104.57 388.153C104.57 390.012 103.088 391.13 101.45 391.13ZM100.007 388.192C100.007 388.985 100.605 389.609 101.463 389.609C102.321 389.609 102.906 388.985 102.906 388.192C102.906 387.399 102.321 386.775 101.463 386.775C100.605 386.775 100.007 387.399 100.007 388.192ZM106.66 391.13C106.114 391.13 105.659 390.727 105.659 390.129C105.659 389.531 106.114 389.128 106.66 389.128C107.193 389.128 107.661 389.531 107.661 390.129C107.661 390.727 107.193 391.13 106.66 391.13ZM105.659 385.202C105.659 384.604 106.114 384.201 106.66 384.201C107.193 384.201 107.661 384.604 107.661 385.202C107.661 385.8 107.193 386.203 106.66 386.203C106.114 386.203 105.659 385.8 105.659 385.202ZM113.461 391.13C110.913 391.13 108.755 389.219 108.755 386.385C108.755 383.551 110.913 381.64 113.461 381.64C115.996 381.64 118.167 383.551 118.167 386.385C118.167 389.219 115.996 391.13 113.461 391.13ZM110.536 386.385C110.536 388.244 111.849 389.505 113.461 389.505C115.06 389.505 116.386 388.244 116.386 386.385C116.386 384.526 115.06 383.265 113.461 383.265C111.849 383.265 110.536 384.526 110.536 386.385ZM123.807 391.13C121.259 391.13 119.101 389.219 119.101 386.385C119.101 383.551 121.259 381.64 123.807 381.64C126.342 381.64 128.513 383.551 128.513 386.385C128.513 389.219 126.342 391.13 123.807 391.13ZM120.882 386.385C120.882 388.244 122.195 389.505 123.807 389.505C125.406 389.505 126.732 388.244 126.732 386.385C126.732 384.526 125.406 383.265 123.807 383.265C122.195 383.265 120.882 384.526 120.882 386.385Z" fill="#272727"></path>
<path d="M172.184 391V383.369H170.689V381.77H173.939V391H172.184ZM175.746 391L178.918 383.291H175.278V381.77H181.232L177.475 391H175.746ZM183.241 391.13C182.695 391.13 182.24 390.727 182.24 390.129C182.24 389.531 182.695 389.128 183.241 389.128C183.774 389.128 184.242 389.531 184.242 390.129C184.242 390.727 183.774 391.13 183.241 391.13ZM182.24 385.202C182.24 384.604 182.695 384.201 183.241 384.201C183.774 384.201 184.242 384.604 184.242 385.202C184.242 385.8 183.774 386.203 183.241 386.203C182.695 386.203 182.24 385.8 182.24 385.202ZM190.042 391.13C187.494 391.13 185.336 389.219 185.336 386.385C185.336 383.551 187.494 381.64 190.042 381.64C192.577 381.64 194.748 383.551 194.748 386.385C194.748 389.219 192.577 391.13 190.042 391.13ZM187.117 386.385C187.117 388.244 188.43 389.505 190.042 389.505C191.641 389.505 192.967 388.244 192.967 386.385C192.967 384.526 191.641 383.265 190.042 383.265C188.43 383.265 187.117 384.526 187.117 386.385ZM200.388 391.13C197.84 391.13 195.682 389.219 195.682 386.385C195.682 383.551 197.84 381.64 200.388 381.64C202.923 381.64 205.094 383.551 205.094 386.385C205.094 389.219 202.923 391.13 200.388 391.13ZM197.463 386.385C197.463 388.244 198.776 389.505 200.388 389.505C201.987 389.505 203.313 388.244 203.313 386.385C203.313 384.526 201.987 383.265 200.388 383.265C198.776 383.265 197.463 384.526 197.463 386.385Z" fill="#272727"></path>
</svg>