<svg width="64" height="64" viewBox="0 0 64 64" fill="none" xmlns="http://www.w3.org/2000/svg">
<path d="M31.784 25.2001C37.0209 25.2001 41.2801 21.0635 41.2801 15.9773C41.2801 10.8913 37.0209 6.7547 31.784 6.7547C26.5471 6.7547 22.2879 10.8913 22.2879 15.9773C22.2914 21.0635 26.5507 25.2001 31.784 25.2001ZM31.784 10.7377C34.7601 10.7377 37.179 13.087 37.179 15.9773C37.179 18.8678 34.7601 21.2171 31.784 21.2171C28.8079 21.2171 26.389 18.8678 26.389 15.9773C26.389 13.0905 28.8115 10.7377 31.784 10.7377Z" fill="#FFBBAA"/>
<path d="M51.2331 28.3487C49.3713 26.0971 46.1687 24.809 42.4342 24.809C42.4127 24.809 42.3911 24.809 42.3696 24.809C37.3087 24.809 33.8186 27.4865 31.8778 29.5529C29.9333 27.4865 26.4397 24.809 21.3788 24.809C19.0533 24.809 16.8356 25.3431 14.9702 26.2333C14.848 26.2926 14.7294 26.352 14.6108 26.4147C14.5749 26.4356 14.5353 26.4531 14.4994 26.4705C14.3736 26.5369 14.2478 26.6067 14.1256 26.6766C14.0825 26.7009 14.0429 26.7254 13.9998 26.7499C13.8991 26.8092 13.7949 26.8719 13.6979 26.9348C11.4227 28.3661 9.90948 30.3838 9.7693 32.5585C9.52849 33.8152 9.51771 35.3163 9.93105 37.093C11.3041 42.996 15.477 48.4172 21.997 52.7736C26.8171 55.9956 31.2164 57.5141 31.3997 57.577L32.1186 57.8213L32.8267 57.5525C33.506 57.2941 49.4791 51.0666 52.7534 36.9813C53.7742 32.6004 52.4875 29.8707 51.2331 28.3487ZM29.4373 32.8937C28.3123 34.2376 25.7136 36.6113 21.3788 36.6113C17.4215 36.6113 14.0214 34.66 13.8596 33.0089C14.0142 32.4014 14.2837 31.8568 14.6647 31.3821C14.8552 31.1447 15.0781 30.9248 15.3261 30.7189C15.4986 30.5861 15.6855 30.4535 15.8832 30.3279C16.5338 29.9159 17.2669 29.5844 18.0363 29.3331C19.0498 29.0293 20.1928 28.8514 21.4184 28.8269V28.792C25.541 28.8094 28.2404 31.417 29.4373 32.8937ZM48.7566 36.1052C47.5992 41.0865 44.3535 45.5687 39.1166 49.4259C36.1335 51.6216 33.3119 52.9865 32.0359 53.5486C29.2 52.4211 18.8054 47.7887 14.9595 39.2434C16.9003 40.1056 19.172 40.5874 21.3788 40.5874C24.8438 40.5874 28.0642 39.4458 30.6952 37.285C30.724 37.2607 33.2113 35.1592 33.8331 33.5394C34.6238 32.3979 37.5101 28.7885 42.3839 28.7885C42.3982 28.7885 42.4162 28.7885 42.4307 28.7885C44.9143 28.7885 46.9559 29.5355 48.0341 30.841C49.044 32.0593 49.2849 33.8292 48.7566 36.1052Z" fill="#FFBBAA"/>
<path d="M31.9999 0C14.3556 0 0 14.3541 0 32C0 49.6424 14.3556 64 31.9999 64C49.6443 64 64 49.6459 64 32C64.0035 14.3541 49.648 0 31.9999 0ZM31.9999 60.017C16.6128 60.017 4.09749 47.4467 4.09749 32C4.09749 16.5533 16.6164 3.97949 31.9999 3.97949C47.3835 3.97949 59.9025 16.5498 59.9025 31.9965C59.9025 47.4431 47.3872 60.017 31.9999 60.017Z" fill="#FFBBAA"/>
</svg>
