<svg width="205" height="40" viewBox="0 0 205 40" fill="none" xmlns="http://www.w3.org/2000/svg" data-v-7fbe3782=""><path d="M102.365 18.068C102.365 17.6076 102.336 17.2279 102.283 16.9312C102.227 16.6345 102.095 16.329 101.887 16.017C101.68 15.705 101.394 15.4694 101.034 15.3057C100.84 15.2512 100.743 15.129 100.743 14.9414V14.8192C100.743 14.5486 100.882 14.4003 101.159 14.3719C101.825 14.3174 102.815 13.9115 104.133 13.1522C105.449 12.3951 106.537 12.07 107.397 12.1769C107.647 12.2031 107.77 12.3384 107.77 12.5828V13.1108C108.907 12.6242 110.114 12.3799 111.389 12.3799C113.856 12.3799 115.972 13.2591 117.732 15.0199C119.493 16.7807 120.373 18.9058 120.373 21.3975C120.373 23.8892 119.493 26.0143 117.732 27.7751C115.972 29.5358 113.858 30.4151 111.389 30.4151C110.114 30.4151 108.907 30.1707 107.77 29.6842V33.989C107.77 35.4508 108.212 36.3585 109.102 36.7098C109.296 36.7905 109.392 36.9258 109.392 37.1156V37.2378C109.392 37.3447 109.35 37.4472 109.267 37.5432C109.184 37.6371 109.072 37.6851 108.934 37.6851H101.157C101.045 37.6851 100.949 37.6371 100.866 37.5432C100.784 37.4472 100.741 37.3469 100.741 37.2378V37.1156C100.741 36.9258 100.837 36.7905 101.032 36.7098C101.559 36.4938 101.912 36.1621 102.093 35.7148C102.274 35.2676 102.363 34.6915 102.363 33.989V18.068H102.365ZM107.77 14.6163V28.1831C108.212 28.3183 108.686 28.386 109.184 28.386C110.21 28.386 111.152 28.074 112.013 27.4521C112.873 26.8303 113.552 25.9837 114.05 24.9146C114.548 23.8455 114.799 22.6739 114.799 21.4018C114.799 19.4796 114.251 17.8345 113.157 16.4665C112.062 15.0985 110.737 14.4155 109.184 14.4155C108.686 14.4134 108.215 14.481 107.77 14.6163Z" fill="#FFFFFF"></path> <path d="M122.576 7.79357C122.576 7.3332 122.547 6.95355 122.493 6.65682C122.437 6.36009 122.305 6.05463 122.098 5.74262C121.89 5.43062 121.604 5.20807 121.244 5.07279C121.05 4.99206 120.954 4.85679 120.954 4.66697V4.54478C120.954 4.27423 121.092 4.12587 121.369 4.0975C121.867 4.07132 122.388 3.9295 122.929 3.67204C123.469 3.41458 124.023 3.1113 124.593 2.75784C125.161 2.40656 125.654 2.17528 126.07 2.06837C126.512 1.90692 126.943 1.97455 127.359 2.27129C127.775 2.54184 127.982 2.92148 127.982 3.40803V26.7212C127.982 27.4259 128.072 27.9997 128.253 28.447C128.434 28.8943 128.787 29.2259 129.314 29.442C129.508 29.5227 129.604 29.6601 129.604 29.8478V29.97C129.604 30.2405 129.452 30.3758 129.146 30.3758H121.369C121.092 30.3758 120.954 30.2405 120.954 29.97V29.8478C120.954 29.658 121.05 29.5227 121.244 29.442C121.771 29.2259 122.124 28.8943 122.305 28.447C122.486 27.9997 122.576 27.4259 122.576 26.7212C122.576 22.6586 122.576 16.3486 122.576 7.79357Z" fill="#FFFFFF"></path> <path d="M145.794 26.2325C145.184 27.234 144.29 28.0936 143.11 28.8114C141.931 29.5293 140.691 30.0158 139.388 30.2733C138.086 30.5308 136.754 30.4369 135.396 29.9896C134.037 29.5424 132.927 28.7373 132.069 27.5722C131.126 26.3263 130.55 24.8863 130.342 23.2455C130.134 21.607 130.253 20.0513 130.695 18.5742C131.137 17.0992 131.908 15.7661 133.003 14.5726C134.098 13.3813 135.407 12.609 136.933 12.2577C137.737 12.0133 138.617 11.9457 139.574 12.0548C140.53 12.1639 141.424 12.3668 142.257 12.6635C143.088 12.9624 143.776 13.4752 144.315 14.2061C144.855 14.937 145.112 15.8032 145.083 16.8047C145.056 17.9698 144.652 18.9298 143.877 19.6891C143.099 20.4484 142.185 20.9284 141.131 21.1313C140.076 21.3342 139.037 21.4019 138.012 21.3342C136.986 21.2666 136.182 21.0702 135.599 20.7451C135.793 22.5604 136.292 24.1226 137.096 25.4361C137.9 26.7496 138.953 27.5154 140.257 27.7314C142.004 27.9758 143.571 27.2841 144.958 25.6608C145.097 25.471 145.278 25.4448 145.499 25.5801L145.666 25.6608C145.919 25.8005 145.959 25.9881 145.794 26.2325ZM138.472 13.2352C137.474 13.425 136.718 14.1428 136.205 15.3887C135.691 16.6345 135.463 18.0963 135.519 19.7742C137.958 20.0186 139.636 19.3138 140.55 17.6622C141.187 16.5254 141.243 15.4279 140.718 14.3719C140.246 13.4533 139.498 13.0737 138.472 13.2352Z" fill="#FFFFFF"></path> <path d="M181.793 27.978V27.1249C181.239 27.6398 180.606 28.1133 179.9 28.5474C179.194 28.9816 178.397 29.3744 177.51 29.7256C176.623 30.0769 175.763 30.282 174.932 30.3344C173.158 30.4958 171.79 30.0835 170.834 29.0951C169.878 28.1067 169.4 26.6776 169.4 24.8099V18.068C169.4 16.6061 168.942 15.6985 168.028 15.3472C167.863 15.2665 167.778 15.1312 167.778 14.9414V14.8192C167.778 14.5748 167.916 14.4395 168.193 14.4134C168.859 14.3588 169.71 14.0272 170.752 13.4184C171.79 12.8097 172.505 12.4497 172.894 12.3428C173.366 12.2075 173.794 12.2751 174.183 12.5457C174.599 12.8446 174.807 13.2221 174.807 13.6824V23.9175C174.807 25.2179 175.014 26.191 175.43 26.8412C175.845 27.4914 176.359 27.8231 176.969 27.8362C177.579 27.8492 178.218 27.7205 178.882 27.45C179.547 27.1794 180.144 26.8347 180.669 26.4136C181.196 25.9947 181.569 25.6085 181.793 25.255V18.068C181.793 16.6061 181.348 15.6985 180.461 15.3472C180.296 15.2665 180.211 15.1312 180.211 14.9414V14.8192C180.211 14.5748 180.336 14.4395 180.586 14.4134C181.252 14.3588 182.11 14.0272 183.165 13.4184C184.217 12.8097 184.925 12.4497 185.285 12.3428C185.756 12.2075 186.201 12.2751 186.616 12.5457C187.005 12.8446 187.2 13.2221 187.2 13.6824V26.7212C187.226 27.426 187.325 27.9998 187.49 28.4471C187.655 28.8944 188.017 29.226 188.571 29.442C188.737 29.5227 188.822 29.6602 188.822 29.8478V29.97C188.822 30.2406 188.67 30.3758 188.364 30.3758H182.251C182.139 30.3758 182.036 30.3344 181.938 30.2537C181.84 30.1729 181.793 30.0769 181.793 29.97V27.978Z" fill="#FFFFFF"></path> <path d="M198.328 28.7918C199.077 28.602 199.506 28.1416 199.617 27.4107C199.727 26.6798 199.506 26.0711 198.952 25.5823C198.424 25.0958 197.58 24.5328 196.414 23.8957C195.25 23.2608 194.209 22.6979 193.295 22.2113C192.379 21.7248 191.561 21.0528 190.842 20.2019C190.12 19.3487 189.76 18.4215 189.76 17.42C189.76 16.4185 190.051 15.5174 190.634 14.7188C191.217 13.9203 192.012 13.3115 193.024 12.8904C194.036 12.4715 195.18 12.2599 196.456 12.2599C197.62 12.2599 198.757 12.4912 199.865 12.9494C200.475 13.1937 200.953 13.281 201.3 13.2134C201.646 13.1457 201.959 12.8948 202.236 12.4628C202.319 12.3559 202.444 12.3013 202.611 12.3013H202.736C202.846 12.3013 202.944 12.3428 203.027 12.4235C203.109 12.5043 203.152 12.6003 203.152 12.7072V17.7036C203.152 17.9742 203.013 18.1094 202.736 18.1094H202.694C202.473 18.1094 202.334 17.9873 202.278 17.7429C202.196 17.0382 201.863 16.3683 201.28 15.7334C200.697 15.0985 200.033 14.6098 199.282 14.2716C198.534 13.9334 197.77 13.7239 196.995 13.641C196.217 13.5603 195.58 13.7086 195.082 14.0883C194.693 14.3588 194.499 14.7647 194.499 15.3079C194.499 15.849 195.109 16.4992 196.329 17.2585C197.549 18.0178 198.934 18.8295 200.489 19.6957C202.042 20.5619 203.067 21.2928 203.565 21.8884C204.287 22.7284 204.647 23.6623 204.647 24.6921C204.647 25.3423 204.515 25.9794 204.251 26.6012C203.988 27.2253 203.592 27.7991 203.065 28.3271C202.538 28.8551 201.914 29.2806 201.193 29.6057C199.472 30.3366 196.02 30.5657 190.837 30.2951C190.725 30.2951 190.629 30.2537 190.547 30.1729C190.464 30.0922 190.422 29.9962 190.422 29.8893V25.5845C190.422 25.4492 190.464 25.3401 190.547 25.2594C190.629 25.1787 190.741 25.1372 190.88 25.1372H191.087C191.253 25.1372 191.378 25.2049 191.46 25.3401C192.097 26.37 192.846 27.1685 193.706 27.7358C194.343 28.17 195.113 28.4929 196.014 28.7111C196.921 28.9271 197.692 28.9533 198.328 28.7918Z" fill="#FFFFFF"></path> <path d="M154.916 29.442C154.556 29.3067 154.27 29.0842 154.062 28.7722C153.854 28.4602 153.722 28.1569 153.667 27.858C153.611 27.5612 153.584 27.1816 153.584 26.7212V18.9451C152.947 19.6673 150.516 22.4295 148.177 25.1437C148.177 25.7088 148.177 26.0972 148.177 26.719C148.177 26.9896 148.171 27.2209 148.157 27.4085C148.144 27.5983 148.108 27.8078 148.052 28.0391C147.996 28.2703 147.92 28.4645 147.824 28.6282C147.726 28.7896 147.596 28.9467 147.429 29.0951C147.261 29.2434 147.069 29.3591 146.846 29.4398C146.651 29.5205 146.555 29.658 146.555 29.8456V29.9678C146.555 30.0769 146.598 30.1707 146.68 30.2515C146.763 30.3322 146.875 30.3736 147.013 30.3736H154.748C154.886 30.3736 154.998 30.3322 155.081 30.2515C155.164 30.1707 155.206 30.0747 155.206 29.9678V29.8456C155.206 29.658 155.11 29.5227 154.916 29.442Z" fill="#FFFFFF"></path> <path d="M167.351 29.442C166.824 29.226 166.471 28.8943 166.29 28.4471C166.109 27.9998 166.019 27.426 166.019 26.7212V17.8258C166.019 15.9581 165.535 14.529 164.563 13.5406C163.591 12.5522 162.219 12.1399 160.445 12.3013C159.252 12.382 158.032 12.742 156.785 13.377C155.633 13.9661 154.636 14.6184 153.789 15.3319L153.787 15.3341C153.718 15.393 153.649 15.4497 153.582 15.5086V12.3013C152.999 12.1399 152.402 12.1464 151.794 12.3209C151.184 12.4977 150.657 12.7333 150.215 13.0322C149.77 13.3311 149.252 13.6279 148.655 13.9268C148.059 14.2257 147.498 14.3872 146.971 14.4134C146.694 14.4395 146.555 14.5901 146.555 14.8606V14.9828C146.555 15.1726 146.651 15.2948 146.846 15.3494C147.373 15.5654 147.726 15.9057 147.907 16.3639C148.088 16.8243 148.177 17.4069 148.177 18.1116C148.177 19.0476 148.177 20.3567 148.177 22.0346C146.213 24.295 144.79 25.8594 144.79 25.8594L144.696 26.551L145.483 26.695C148.374 23.2411 153.244 17.7167 153.745 17.1472V17.1538C153.97 16.8658 154.29 16.5559 154.705 16.2243C155.233 15.8054 155.834 15.4606 156.515 15.1879C157.194 14.9174 157.838 14.7886 158.45 14.8017C159.06 14.8148 159.574 15.1465 159.989 15.7966C160.405 16.4468 160.613 17.4221 160.613 18.7203V26.7212C160.586 27.426 160.481 27.9998 160.3 28.4471C160.119 28.8943 159.766 29.226 159.239 29.442C159.073 29.5227 158.988 29.6602 158.988 29.8478V29.97C158.988 30.0791 159.031 30.1729 159.113 30.2536C159.196 30.3344 159.294 30.3758 159.404 30.3758H167.181C167.291 30.3758 167.396 30.3344 167.494 30.2536C167.59 30.1729 167.639 30.0769 167.639 29.97V29.8478C167.641 29.658 167.545 29.5227 167.351 29.442Z" fill="#FFFFFF"></path> <path d="M53.9665 28.7721C54.7149 28.5823 55.1439 28.122 55.2556 27.391C55.3651 26.6601 55.1439 26.0514 54.5898 25.5648C54.0625 25.0783 53.218 24.5175 52.054 23.8804C50.89 23.2455 49.8511 22.6826 48.9373 22.196C48.0235 21.7095 47.2058 21.0396 46.4842 20.1865C45.7625 19.3334 45.4028 18.4083 45.4028 17.4068C45.4028 16.4054 45.6933 15.5064 46.2764 14.7079C46.8573 13.9093 47.6549 13.3006 48.667 12.8817C49.6791 12.4628 50.8207 12.2533 52.0964 12.2533C53.2604 12.2533 54.3954 12.4824 55.5036 12.9428C56.1135 13.1871 56.5916 13.2744 56.9379 13.2068C57.2842 13.1391 57.5948 12.8882 57.874 12.4562C57.9567 12.3493 58.0818 12.2948 58.2471 12.2948H58.3723C58.4817 12.2948 58.58 12.3362 58.6627 12.4169C58.7454 12.4977 58.7878 12.5937 58.7878 12.7006V17.6927C58.7878 17.9632 58.6493 18.0985 58.3723 18.0985H58.3298C58.1086 18.0985 57.9701 17.9763 57.9143 17.7341C57.8316 17.0316 57.4987 16.3617 56.9178 15.7246C56.3369 15.0897 55.6711 14.601 54.9227 14.2628C54.1742 13.9246 53.4124 13.7151 52.6371 13.6344C51.8619 13.5537 51.2229 13.7021 50.7247 14.0817C50.3359 14.3522 50.1438 14.7581 50.1438 15.2992C50.1438 15.8403 50.7537 16.4905 51.9713 17.2476C53.1912 18.0047 54.5764 18.8163 56.1269 19.6825C57.6774 20.5487 58.7029 21.2796 59.2034 21.8753C59.9228 22.7153 60.2847 23.647 60.2847 24.6768C60.2847 25.327 60.1529 25.9619 59.8893 26.5837C59.6256 27.2056 59.2302 27.7816 58.7052 28.3096C58.1779 28.8376 57.5545 29.2631 56.8351 29.5882C55.1171 30.3191 51.6675 30.5482 46.4864 30.2776C46.3747 30.2776 46.2786 30.2362 46.196 30.1554C46.1133 30.0747 46.0709 29.9787 46.0709 29.8718V25.5692C46.0709 25.4339 46.1133 25.3248 46.196 25.2441C46.2786 25.1634 46.3903 25.1219 46.5289 25.1219H46.7366C46.902 25.1219 47.0271 25.1895 47.1097 25.3248C47.7465 26.3525 48.4949 27.151 49.3551 27.7205C49.9918 28.1547 50.7604 28.4776 51.6608 28.6936C52.5612 28.9096 53.3297 28.9358 53.9665 28.7721Z" fill="#FFFFFF"></path> <path d="M63.9936 14.9327C65.6536 13.1741 67.6666 12.2948 70.0281 12.2948C72.3919 12.2948 74.4026 13.1741 76.0626 14.9327C77.7226 16.6912 78.5538 18.8229 78.5538 21.3255C78.5538 23.8281 77.7226 25.9598 76.0626 27.7184C74.4026 29.4769 72.3896 30.3562 70.0281 30.3562C67.6643 30.3562 65.6536 29.4769 63.9936 27.7184C62.3336 25.9598 61.5024 23.8281 61.5024 21.3255C61.5047 18.8229 62.3336 16.6912 63.9936 14.9327ZM70.0102 29.058C71.0067 29.0842 71.849 28.3424 72.5393 26.826C73.2297 25.3118 73.5872 23.4834 73.6117 21.3473C73.6117 19.2113 73.2677 17.3829 72.5773 15.8687C71.8869 14.3545 71.0447 13.5821 70.0482 13.5559C69.0763 13.5559 68.2407 14.313 67.5392 15.8294C66.8354 17.3458 66.4847 19.172 66.4847 21.3081C66.4847 23.4463 66.8287 25.2725 67.5191 26.7867C68.2095 28.3009 69.0406 29.058 70.0102 29.058Z" fill="#FFFFFF"></path> <path d="M93.1853 27.9606V27.1075C92.6312 27.6224 92.0012 28.0959 91.2952 28.5279C90.5892 28.962 89.7916 29.3548 88.9046 29.7061C88.0176 30.0573 87.1597 30.2603 86.3286 30.3148C84.5546 30.4763 83.1896 30.0661 82.2356 29.0777C81.2793 28.0893 80.8012 26.6624 80.8012 24.7947V18.0571C80.8012 16.5953 80.3432 15.6898 79.4294 15.3385C79.2641 15.2578 79.1792 15.1225 79.1792 14.9327V14.8105C79.1792 14.5662 79.3177 14.4309 79.5948 14.4047C80.2605 14.3502 81.1118 14.0185 82.1507 13.4098C83.1896 12.801 83.9023 12.4432 84.291 12.3341C84.7624 12.1988 85.1914 12.2665 85.5801 12.537C85.9957 12.8359 86.2035 13.2134 86.2035 13.6738V23.9023C86.2035 25.2005 86.4113 26.1758 86.8268 26.8238C87.2424 27.474 87.754 27.8057 88.3639 27.8188C88.9739 27.8318 89.6106 27.7031 90.2764 27.4326C90.9422 27.162 91.5365 26.8173 92.0637 26.3984C92.5888 25.9794 92.9641 25.5933 93.1853 25.242V18.0571C93.1853 16.5953 92.7407 15.6898 91.856 15.3385C91.6906 15.2578 91.6057 15.1225 91.6057 14.9327V14.8105C91.6057 14.5662 91.7308 14.4309 91.9788 14.4047C92.6446 14.3502 93.5025 14.0185 94.5548 13.4098C95.6071 12.801 96.3131 12.4432 96.6751 12.3341C97.1465 12.1988 97.5889 12.2665 98.0044 12.537C98.3932 12.8359 98.5853 13.2134 98.5853 13.6738V26.7038C98.6121 27.4086 98.7104 27.9824 98.8758 28.4297C99.0411 28.877 99.4008 29.2086 99.9571 29.4246C100.122 29.5053 100.207 29.6406 100.207 29.8304V29.9526C100.207 30.2232 100.055 30.3584 99.7493 30.3584H93.6388C93.5271 30.3584 93.4244 30.317 93.326 30.2363C93.2277 30.1555 93.1808 30.0595 93.1808 29.9526V27.9606H93.1853Z" fill="#FFFFFF"></path> <path d="M19.7567 15.7509C23.0119 15.7509 25.6594 13.1654 25.6594 9.98639C25.6594 6.80742 23.0119 4.22192 19.7567 4.22192C16.5015 4.22192 13.854 6.80742 13.854 9.98639C13.8562 13.1654 16.5037 15.7509 19.7567 15.7509ZM19.7567 6.71142C21.6066 6.71142 23.1102 8.17981 23.1102 9.98639C23.1102 11.793 21.6066 13.2614 19.7567 13.2614C17.9068 13.2614 16.4032 11.793 16.4032 9.98639C16.4032 8.18199 17.909 6.71142 19.7567 6.71142Z" fill="#FFBBAA"></path> <path d="M31.8461 17.7189C30.6888 16.3116 28.6981 15.5065 26.3768 15.5065C26.3634 15.5065 26.35 15.5065 26.3366 15.5065C23.1908 15.5065 21.0214 17.18 19.815 18.4716C18.6063 17.18 16.4347 15.5065 13.2889 15.5065C11.8434 15.5065 10.4649 15.8403 9.30539 16.3967C9.22943 16.4338 9.1557 16.4709 9.08197 16.5101C9.05963 16.5232 9.03506 16.5341 9.01271 16.545C8.93452 16.5865 8.85632 16.6301 8.78036 16.6738C8.75355 16.689 8.72897 16.7043 8.70216 16.7196C8.63961 16.7567 8.57481 16.7959 8.51449 16.8352C7.10025 17.7298 6.15966 18.9909 6.07253 20.3502C5.92284 21.1357 5.91614 22.0739 6.17307 23.1844C7.02653 26.874 9.62041 30.2624 13.6732 32.9853C16.6693 34.9992 19.4039 35.9483 19.5178 35.9876L19.9647 36.1403L20.4048 35.9723C20.8271 35.8108 30.7558 31.9184 32.7911 23.1146C33.4256 20.3764 32.6258 18.6702 31.8461 17.7189ZM18.298 20.5597C17.5987 21.3997 15.9834 22.8833 13.2889 22.8833C10.8291 22.8833 8.71557 21.6637 8.61503 20.6317C8.7111 20.252 8.87866 19.9116 9.11549 19.6149C9.2339 19.4665 9.37242 19.3291 9.52658 19.2004C9.63382 19.1174 9.74999 19.0345 9.87287 18.956C10.2773 18.6985 10.733 18.4913 11.2112 18.3342C11.8412 18.1443 12.5517 18.0331 13.3135 18.0178V17.996C15.8761 18.0069 17.554 19.6367 18.298 20.5597ZM30.3067 22.567C29.5873 25.6805 27.5698 28.482 24.3146 30.8929C22.4603 32.2653 20.7064 33.1184 19.9133 33.4697C18.1505 32.765 11.6893 29.8696 9.29869 24.5285C10.5051 25.0674 11.9172 25.3685 13.2889 25.3685C15.4427 25.3685 17.4445 24.655 19.0799 23.3044C19.0978 23.2892 20.6439 21.9757 21.0304 20.9633C21.5219 20.2498 23.316 17.9938 26.3455 17.9938C26.3544 17.9938 26.3656 17.9938 26.3746 17.9938C27.9184 17.9938 29.1874 18.4607 29.8576 19.2767C30.4854 20.0382 30.6351 21.1444 30.3067 22.567Z" fill="#FFBBAA"></path> <path d="M19.8909 0C8.92332 0 0 8.9718 0 20.0011C0 31.0282 8.92332 40.0022 19.8909 40.0022C30.8585 40.0022 39.7819 31.0304 39.7819 20.0011C39.7841 8.9718 30.8608 0 19.8909 0ZM19.8909 37.5127C10.3264 37.5127 2.54697 29.6558 2.54697 20.0011C2.54697 10.3464 10.3286 2.48732 19.8909 2.48732C29.4532 2.48732 37.2349 10.3442 37.2349 19.9989C37.2349 29.6536 29.4555 37.5127 19.8909 37.5127Z" fill="#FFBBAA"></path></svg>